<?xml version="1.0" encoding="UTF-8"?><svg xmlns="http://www.w3.org/2000/svg" xmlns:xlink="http://www.w3.org/1999/xlink" width="700pt" height="700pt" version="1.1" viewBox="0 0 700 700"><defs><symbol id="m" overflow="visible"><path d="M18.766-1.125c-.969.5-1.98.875-3.031 1.125-1.043.258-2.137.39-3.281.39-3.399 0-6.09-.945-8.079-2.843-1.992-1.906-2.984-4.485-2.984-7.735 0-3.257.992-5.835 2.984-7.734 1.989-1.906 4.68-2.86 8.079-2.86 1.144 0 2.238.133 3.28.391 1.052.25 2.063.625 3.032 1.125v4.219c-.98-.656-1.945-1.14-2.89-1.453a9.532 9.532 0 0 0-3-.469c-1.876 0-3.352.606-4.423 1.813-1.074 1.199-1.609 2.855-1.609 4.968 0 2.106.535 3.762 1.61 4.97C9.523-4.02 11-3.423 12.874-3.423c1.051 0 2.051-.148 3-.453.946-.312 1.91-.8 2.891-1.469z"/></symbol><symbol id="d" overflow="visible"><path d="M13.734-11.141a6.765 6.765 0 0 0-1.297-.438 5.346 5.346 0 0 0-1.265-.156c-1.262 0-2.231.406-2.907 1.219-.68.805-1.015 1.953-1.015 3.453V0H2.36v-15.312h4.89v2.515c.625-1 1.344-1.726 2.156-2.187.82-.469 1.8-.703 2.937-.703.164 0 .344.011.532.03.195.013.476.04.843.079z"/></symbol><symbol id="c" overflow="visible"><path d="M17.641-7.703v1.406H6.188c.125 1.148.54 2.008 1.25 2.578.707.574 1.703.86 2.984.86a11.52 11.52 0 0 0 3.157-.454 16.707 16.707 0 0 0 3.328-1.39v3.765a20.629 20.629 0 0 1-3.47.985A18.006 18.006 0 0 1 9.97.39C7.196.39 5.04-.313 3.5-1.72 1.97-3.125 1.203-5.098 1.203-7.64c0-2.5.754-4.46 2.266-5.89 1.508-1.438 3.582-2.157 6.219-2.157 2.406 0 4.332.731 5.781 2.188 1.445 1.45 2.172 3.383 2.172 5.797zM12.61-9.328c0-.926-.274-1.672-.813-2.234-.543-.57-1.25-.86-2.125-.86-.949 0-1.719.266-2.312.797s-.965 1.297-1.11 2.297z"/></symbol><symbol id="b" overflow="visible"><path d="M9.219-6.89c-1.024 0-1.793.171-2.313.515-.511.344-.765.855-.765 1.531 0 .625.207 1.117.625 1.469.414.344.988.516 1.718.516.926 0 1.704-.328 2.329-.985.632-.664.953-1.492.953-2.484v-.563zm7.469-1.844V0h-4.922v-2.266c-.657.93-1.399 1.606-2.22 2.032-.823.414-1.823.625-3 .625-1.585 0-2.87-.457-3.859-1.375-.992-.926-1.484-2.13-1.484-3.61 0-1.789.613-3.101 1.844-3.937 1.238-.844 3.18-1.266 5.828-1.266h2.89v-.39c0-.77-.308-1.333-.921-1.688-.617-.363-1.57-.547-2.86-.547-1.054 0-2.03.106-2.937.313-.899.21-1.73.523-2.5.937v-3.734c1.039-.25 2.086-.442 3.14-.578a25.68 25.68 0 0 1 3.188-.204c2.758 0 4.75.547 5.969 1.641 1.226 1.086 1.844 2.856 1.844 5.313z"/></symbol><symbol id="a" overflow="visible"><path d="M7.703-19.656v4.344h5.047v3.5H7.703v6.5c0 .71.14 1.187.422 1.437s.836.375 1.672.375h2.515V0H8.125C6.187 0 4.812-.398 4-1.203c-.805-.812-1.203-2.18-1.203-4.11v-6.5H.375v-3.5h2.422v-4.343z"/></symbol><symbol id="i" overflow="visible"><path d="M12.766-13.078v-8.203h4.922v21.28h-4.922v-2.218c-.668.906-1.406 1.57-2.219 1.985S8.79.39 7.72.39c-1.887 0-3.434-.75-4.64-2.25-1.211-1.5-1.813-3.426-1.813-5.782 0-2.363.602-4.297 1.812-5.797 1.207-1.5 2.754-2.25 4.641-2.25 1.063 0 2 .215 2.813.641.82.43 1.566 1.086 2.234 1.969zM9.547-3.156c1.04 0 1.836-.379 2.39-1.14.552-.77.829-1.883.829-3.344 0-1.457-.277-2.567-.828-3.329-.555-.77-1.352-1.156-2.39-1.156-1.044 0-1.84.387-2.391 1.156-.555.762-.829 1.872-.829 3.329 0 1.46.274 2.574.829 3.343.55.762 1.347 1.14 2.39 1.14z"/></symbol><symbol id="n" overflow="visible"><path d="M10.5-3.156c1.05 0 1.852-.38 2.406-1.14.551-.77.828-1.884.828-3.345 0-1.457-.277-2.566-.828-3.328-.554-.77-1.355-1.156-2.406-1.156-1.055 0-1.86.387-2.422 1.156-.555.774-.828 1.883-.828 3.328 0 1.45.273 2.559.828 3.329.563.773 1.367 1.156 2.422 1.156zm-3.25-9.922c.676-.883 1.422-1.54 2.234-1.969.82-.426 1.766-.64 2.829-.64 1.894 0 3.445.75 4.656 2.25 1.207 1.5 1.812 3.433 1.812 5.796 0 2.356-.605 4.282-1.812 5.782C15.758-.36 14.207.39 12.312.39 11.25.39 10.305.18 9.484-.234 8.672-.66 7.926-1.32 7.25-2.22V0H2.36v-21.281h4.89z"/></symbol><symbol id="h" overflow="visible"><path d="M.344-15.312h4.89L9.36-4.921l3.5-10.391h4.89L11.313 1.454c-.648 1.695-1.402 2.883-2.265 3.562-.867.688-2 1.032-3.406 1.032H2.797v-3.22h1.531c.832 0 1.438-.136 1.813-.405.382-.262.68-.73.89-1.407l.14-.421z"/></symbol><symbol id="g" overflow="visible"><path d="M14.312-14.828v3.719a18.075 18.075 0 0 0-3.031-.985 12.73 12.73 0 0 0-2.766-.328c-.93 0-1.62.117-2.078.344-.45.23-.672.59-.672 1.078 0 .387.172.684.516.89.344.212.957.368 1.844.47l.859.125c2.508.324 4.195.851 5.063 1.578.863.73 1.296 1.87 1.296 3.422 0 1.636-.605 2.867-1.812 3.687-1.2.813-2.992 1.219-5.375 1.219C7.133.39 6.082.313 5 .156a25.26 25.26 0 0 1-3.313-.718v-3.72c.969.481 1.961.84 2.985 1.079 1.03.23 2.078.344 3.14.344.957 0 1.676-.13 2.156-.39.477-.27.72-.665.72-1.188 0-.438-.169-.758-.5-.97-.337-.218-.997-.382-1.985-.5l-.86-.109c-2.18-.269-3.703-.773-4.578-1.515-.875-.738-1.312-1.86-1.312-3.36 0-1.625.55-2.828 1.656-3.609 1.113-.789 2.82-1.187 5.125-1.187.895 0 1.836.074 2.828.218 1 .137 2.082.352 3.25.641z"/></symbol><symbol id="w" overflow="visible"><path d="M14.953-3.719H6.734L5.422 0H.14l7.563-20.406h6.266L21.53 0H16.25zM8.047-7.5h5.578l-2.781-8.125z"/></symbol><symbol id="v" overflow="visible"><path d="M12.766-2.594c-.668.887-1.406 1.543-2.219 1.969C9.735-.207 8.79 0 7.72 0 5.852 0 4.313-.734 3.094-2.203 1.875-3.68 1.266-5.555 1.266-7.828c0-2.29.61-4.164 1.828-5.625 1.219-1.469 2.758-2.203 4.625-2.203 1.07 0 2.016.215 2.828.64.813.418 1.551 1.075 2.219 1.97v-2.266h4.922v13.766c0 2.457-.777 4.336-2.328 5.64-1.555 1.301-3.809 1.953-6.766 1.953-.949 0-1.87-.074-2.765-.218a17.74 17.74 0 0 1-2.703-.672V1.344c.863.488 1.703.852 2.515 1.094.82.238 1.649.36 2.485.36 1.601 0 2.773-.352 3.515-1.048.75-.699 1.125-1.796 1.125-3.296zm-3.219-9.531c-1.012 0-1.805.375-2.375 1.125-.562.742-.844 1.797-.844 3.172 0 1.398.27 2.46.813 3.187.55.72 1.352 1.079 2.406 1.079 1.02 0 1.813-.368 2.375-1.11.563-.75.844-1.8.844-3.156 0-1.375-.281-2.43-.844-3.172-.562-.75-1.355-1.125-2.375-1.125z"/></symbol><symbol id="l" overflow="visible"><path d="M2.36-15.312h4.89V0H2.36zm0-5.969h4.89v4H2.36z"/></symbol><symbol id="f" overflow="visible"><path d="M17.75-9.328V0h-4.922v-7.14c0-1.32-.031-2.235-.094-2.735s-.168-.867-.312-1.11a1.994 1.994 0 0 0-.781-.734 2.295 2.295 0 0 0-1.11-.265c-1.023 0-1.824.398-2.406 1.187-.586.781-.875 1.871-.875 3.266v7.53H2.36v-15.311h4.89v2.234c.738-.883 1.52-1.539 2.344-1.969.832-.425 1.75-.64 2.75-.64 1.77 0 3.113.547 4.031 1.64.914 1.086 1.375 2.657 1.375 4.72z"/></symbol><symbol id="u" overflow="visible"><path d="M2.578-20.406h5.25v7.766h7.766v-7.766h5.265V0h-5.265v-8.656H7.828V0h-5.25z"/></symbol><symbol id="k" overflow="visible"><path d="M2.188-5.969v-9.344h4.921v1.532c0 .836-.007 1.875-.015 3.125-.012 1.25-.016 2.086-.016 2.5 0 1.242.031 2.132.094 2.672.07.542.18.933.328 1.171.207.325.473.575.797.75.32.168.691.25 1.11.25 1.019 0 1.82-.39 2.406-1.171.582-.782.875-1.868.875-3.266v-7.563h4.89V0h-4.89v-2.218c-.743.898-1.524 1.558-2.344 1.984C9.519.179 8.609.39 7.609.39c-1.761 0-3.105-.54-4.03-1.625-.93-1.082-1.391-2.66-1.391-4.734z"/></symbol><symbol id="j" overflow="visible"><path d="M16.547-12.766c.613-.945 1.348-1.672 2.203-2.172.852-.5 1.79-.75 2.813-.75 1.757 0 3.097.547 4.015 1.64.926 1.087 1.39 2.657 1.39 4.72V0h-4.921v-8.345c.008-.132.016-.32.016-.562 0-1.082-.165-1.863-.485-2.343-.312-.489-.824-.735-1.531-.735-.93 0-1.648.387-2.156 1.156-.512.762-.774 1.868-.782 3.313v7.515h-4.921v-7.984c0-1.695-.149-2.785-.438-3.266-.293-.488-.812-.734-1.562-.734-.938 0-1.665.387-2.172 1.156-.512.762-.766 1.86-.766 3.297V0H2.328v-15.312H7.25v2.235c.602-.864 1.29-1.516 2.063-1.953a5.186 5.186 0 0 1 2.578-.657c1.062 0 2 .258 2.812.766.813.512 1.426 1.23 1.844 2.156z"/></symbol><symbol id="t" overflow="visible"><path d="M12.422-21.281v3.219H9.719c-.688 0-1.172.125-1.453.375-.274.25-.406.687-.406 1.312v1.063h4.187v3.5H7.86V0H2.969v-11.812H.531v-3.5H2.97v-1.063c0-1.664.46-2.898 1.39-3.703.926-.8 2.368-1.203 4.329-1.203z"/></symbol><symbol id="e" overflow="visible"><path d="M9.64-12.188c-1.085 0-1.914.39-2.484 1.172-.574.781-.86 1.906-.86 3.375s.286 2.594.86 3.375c.57.773 1.399 1.156 2.485 1.156 1.062 0 1.875-.383 2.437-1.156.57-.781.86-1.906.86-3.375s-.29-2.594-.86-3.375c-.562-.781-1.375-1.172-2.437-1.172zm0-3.5c2.633 0 4.692.715 6.172 2.14 1.477 1.419 2.22 3.387 2.22 5.907 0 2.512-.743 4.48-2.22 5.906C14.333-.317 12.274.39 9.642.39c-2.649 0-4.715-.707-6.203-2.125-1.493-1.426-2.235-3.394-2.235-5.906 0-2.52.742-4.488 2.235-5.906 1.488-1.426 3.554-2.141 6.203-2.141z"/></symbol><symbol id="s" overflow="visible"><path d="M17.75-9.328V0h-4.922v-7.11c0-1.343-.031-2.265-.094-2.765s-.168-.867-.312-1.11a1.994 1.994 0 0 0-.781-.734 2.295 2.295 0 0 0-1.11-.265c-1.023 0-1.824.398-2.406 1.187-.586.781-.875 1.871-.875 3.266v7.53H2.36v-21.28h4.89v8.203c.738-.883 1.52-1.54 2.344-1.969.832-.426 1.75-.64 2.75-.64 1.77 0 3.113.546 4.031 1.64.914 1.086 1.375 2.656 1.375 4.719z"/></symbol><symbol id="r" overflow="visible"><path d="M2.578-20.406h5.875l7.422 14v-14h4.984V0h-5.875L7.563-14V0H2.578z"/></symbol><symbol id="q" overflow="visible"><path d="M2.578-20.406h8.735c2.593 0 4.581.578 5.968 1.734 1.395 1.149 2.094 2.79 2.094 4.922 0 2.137-.7 3.782-2.094 4.938-1.386 1.156-3.375 1.734-5.968 1.734H7.828V0h-5.25zm5.25 3.813v5.703h2.922c1.02 0 1.805-.25 2.36-.75.562-.5.843-1.203.843-2.11 0-.914-.281-1.617-.844-2.11-.554-.487-1.34-.734-2.359-.734z"/></symbol><symbol id="p" overflow="visible"><path d="M2.36-15.312h4.89V-.281c0 2.05-.496 3.617-1.484 4.703-.98 1.082-2.407 1.625-4.282 1.625H-.937V2.828h.859c.926 0 1.562-.21 1.906-.625.352-.418.531-1.246.531-2.484zm0-5.969h4.89v4H2.36z"/></symbol><symbol id="o" overflow="visible"><path d="M14.719-14.828v3.984a7.612 7.612 0 0 0-2-1.015 6.629 6.629 0 0 0-2.078-.328c-1.367 0-2.434.402-3.203 1.203-.762.793-1.14 1.906-1.14 3.344 0 1.43.378 2.543 1.14 3.343.77.793 1.836 1.188 3.203 1.188.758 0 1.484-.11 2.172-.328a6.412 6.412 0 0 0 1.906-1.016v4c-.762.281-1.54.488-2.328.625a13.04 13.04 0 0 1-2.375.219C7.254.39 5.094-.316 3.53-1.734 1.977-3.148 1.203-5.117 1.203-7.64c0-2.531.774-4.504 2.328-5.922 1.563-1.414 3.723-2.125 6.485-2.125.8 0 1.594.074 2.375.219.781.136 1.555.351 2.328.64z"/></symbol></defs><path d="M459.95 133.63c-11.898 0-23.031-4.582-31.348-12.891-17.461-17.461-17.113-46.227.777-64.121 8.813-8.813 20.457-13.668 32.77-13.668 11.898 0 23.031 4.582 31.348 12.898 8.473 8.473 13.055 19.82 12.891 31.953-.164 12.09-5.02 23.516-13.668 32.168-8.808 8.805-20.449 13.66-32.77 13.66zm2.207-82.629c-10.164 0-19.777 4.016-27.07 11.305-14.746 14.75-15.098 38.398-.777 52.719 6.793 6.793 15.898 10.535 25.648 10.535 10.164 0 19.777-4.016 27.074-11.305 7.156-7.156 11.172-16.594 11.305-26.57.129-9.934-3.606-19.219-10.535-26.145-6.797-6.8-15.902-10.539-25.645-10.539z"/><path d="M407.04 124.28c.043 0 5.98-.645 12.242 5.234.074.067.164.086.234.145.106.105.192.223.297.332 10.977 10.977 25.57 17.02 41.098 17.02 15.523 0 30.117-6.043 41.094-17.02 22.656-22.656 22.656-59.527 0-82.191-10.977-10.977-25.57-17.02-41.094-17.02-15.527 0-30.12 6.043-41.098 17.02-12.723 12.723-18.297 29.926-16.734 46.574-.117.223-.281.414-.351.668-.016.062-1.899 6.3-6.344 10.398-8.063 7.437-26.98 17.71-29.695 19.176-6.777-5.059-14.941-7.836-23.555-7.836-10.555 0-20.484 4.11-27.95 11.574-10.421 10.422-13.77 25.258-10.097 38.539-12.801 6.883-24.953 19.918-27.668 22.934a39.562 39.562 0 0 0-12.434-2.023c-10.555 0-20.484 4.109-27.95 11.582-7.464 7.464-11.573 17.395-11.573 27.949 0 5.074.973 9.992 2.789 14.566-12.57 12.64-18.793 25.844-20.203 29.094-8.34.75-16.082 4.343-22.074 10.336-13.691 13.69-13.926 35.777-.79 49.805-4.698 14.676-3.167 28.8-2.218 34.492a35.806 35.806 0 0 0-5.55 4.543c-13.974 13.973-13.974 36.703 0 50.676 5.1 5.101 11.468 8.468 18.39 9.824 4.504 15.949 15.445 28.629 19.078 32.508-.5 2.172-.824 4.394-.824 6.68 0 7.957 3.098 15.438 8.727 21.062 5.62 5.628 13.105 8.726 21.062 8.726 3.047 0 5.98-.59 8.812-1.469 14.363 9.942 30.238 14.09 35.012 15.164a29.672 29.672 0 0 0 6.614 10.125c5.628 5.63 13.105 8.727 21.062 8.727s15.438-3.098 21.062-8.727c1.902-1.902 3.406-4.078 4.703-6.355.957.055 1.91.14 2.87.14 14.423 0 29.103-6.183 33.177-8.03 3.062 1.495 6.41 2.374 9.922 2.374a22.59 22.59 0 0 0 16.078-6.66c4.199-4.2 6.34-9.648 6.558-15.164 12.22-8.86 23.945-21.762 26.898-25.098 5.57-.32 10.785-2.555 14.762-6.531 4.297-4.297 6.66-10 6.66-16.07 0-3.11-.636-6.11-1.82-8.887 8.434-11.109 12.477-23.992 13.793-28.914 2.508-.941 4.828-2.367 6.781-4.316 6.899-6.906 7.297-17.785 1.36-25.25 3.047-7.531 5.77-22.785 6.68-28.242 1.82-.906 3.539-2.04 5.019-3.524 7.422-7.422 7.422-19.492 0-26.918-7.191-7.191-19.73-7.191-26.918 0a18.91 18.91 0 0 0-5.578 13.461c0 4.352 1.527 8.434 4.199 11.79-.687 4.937-3.031 19.913-6.988 28.5-1.703.85-3.32 1.882-4.7 3.265-5.902 5.902-7.027 14.719-3.542 21.824-.067.223-.192.422-.22.668-.015.133-1.745 13.355-11.894 23.934-5.656.27-10.953 2.52-14.984 6.55-6.106 6.098-7.903 14.813-5.602 22.56-2.289 2.969-10.89 13.625-19.762 18.715-2.18-.684-4.433-1.137-6.789-1.137a22.564 22.564 0 0 0-16.07 6.66c-2.871 2.871-4.723 6.364-5.73 10.023-4.239 1.567-16.168 5.543-24.527 4.059-.028-.004-.055.004-.086 0-1.215-1.973-2.586-3.86-4.266-5.531-5.621-5.63-13.105-8.727-21.062-8.727-7.953 0-15.434 3.098-21.062 8.727-.816.816-1.445 1.746-2.144 2.632-2.961-.675-12.13-3.097-19.086-8.222.378-1.922.582-3.887.582-5.887 0-7.957-3.098-15.438-8.727-21.062-5.621-5.629-13.105-8.727-21.062-8.727-3.336 0-6.547.66-9.61 1.707-3.12-3.93-8.21-11.473-9.53-17.988 1.171-.914 2.312-1.875 3.382-2.945 13.973-13.973 13.973-36.707 0-50.676a35.59 35.59 0 0 0-16.016-9.238c-.14-3.27-.21-11.73 2.156-18.574 8.47-.676 16.34-4.277 22.41-10.355 13.547-13.547 13.914-35.301 1.192-49.352 1.719-4.176 5.898-13.281 11.742-18.91a39.38 39.38 0 0 0 15.406 3.12c10.555 0 20.484-4.108 27.949-11.581 7.465-7.465 11.582-17.395 11.582-27.95a39.417 39.417 0 0 0-3.422-16.05c2.906-4.176 10.84-14.203 23.367-20.121 5.672 3.05 12.05 4.672 18.676 4.672 10.555 0 20.484-4.11 27.949-11.582 11.273-11.273 14.262-27.7 9.05-41.746 11.056-10.113 22.864-18.582 25.978-18.211.332.008.632.004.945-.035zm61.602 197.44a10.909 10.909 0 0 1 7.762-3.215c2.933 0 5.691 1.14 7.761 3.215 4.278 4.277 4.278 11.238 0 15.52-4.144 4.144-11.375 4.144-15.523 0a10.907 10.907 0 0 1-3.214-7.758c0-2.933 1.136-5.687 3.214-7.761zm.219 25.219a18.977 18.977 0 0 0 7.437 1.566c-1.148 6.38-2.972 15.355-4.816 20.945a19.683 19.683 0 0 0-7.465-1.753c2.332-6.985 3.93-15.2 4.844-20.758zm-13.285 31.789a10.909 10.909 0 0 1 7.761-3.215c2.934 0 5.692 1.14 7.762 3.215 4.274 4.277 4.274 11.246 0 15.523-4.144 4.145-11.375 4.145-15.523 0-4.277-4.281-4.277-11.242 0-15.523zm-2.73 23.645c2.519 1.676 5.413 2.633 8.448 2.953-1.585 5.023-4.699 13.195-9.867 20.73-.015-.016-.027-.039-.05-.055a22.538 22.538 0 0 0-7.797-5.066c5.23-6.781 7.914-13.785 9.265-18.562zm-27.91 29.328a14.573 14.573 0 0 1 10.374-4.297 14.57 14.57 0 0 1 10.371 4.297 14.564 14.564 0 0 1 4.297 10.371c0 3.922-1.523 7.605-4.297 10.375-5.543 5.54-15.203 5.54-20.746 0-5.719-5.723-5.719-15.023 0-20.746zm-7.192 24.629c.492.61.918 1.254 1.484 1.82 2.25 2.25 4.91 3.938 7.79 5.067-4.278 4.558-11.325 11.664-18.75 17.539-1.102-2.903-2.782-5.63-5.118-7.965-.41-.41-.89-.719-1.328-1.094 6.672-4.789 12.551-11.293 15.922-15.367zm-41.031 22.164a14.596 14.596 0 0 1 10.37-4.297c3.923 0 7.606 1.527 10.376 4.297 5.719 5.719 5.719 15.031 0 20.746-5.543 5.543-15.203 5.543-20.746 0-5.719-5.715-5.719-15.023 0-20.746zm-32.031 16.762c7.219 0 14.957-2.05 19.94-3.672a22.653 22.653 0 0 0 5.22 11.97c-5.797 2.269-15.91 5.565-25.56 5.628.508-2.2.844-4.453.844-6.766 0-2.468-.398-4.859-.98-7.203.191.004.355.043.535.043zm-44.695-8.207a21.575 21.575 0 0 1 15.359-6.363c5.8 0 11.262 2.261 15.359 6.363 4.105 4.106 6.363 9.559 6.363 15.359s-2.262 11.258-6.363 15.359a21.575 21.575 0 0 1-15.36 6.363c-5.8 0-11.257-2.261-15.358-6.363-8.469-8.469-8.469-22.25 0-30.719zm125.53-433.54c9.453-9.453 22.023-14.656 35.398-14.656 13.367 0 25.938 5.203 35.39 14.656 19.513 19.516 19.513 51.273 0 70.789-9.452 9.453-22.022 14.656-35.39 14.656-13.371 0-25.945-5.203-35.398-14.656-19.512-19.52-19.512-51.273 0-70.789zm-137.76 437.68c-1.727 4.262-2.297 8.832-1.977 13.355-5.601-1.55-15.27-4.781-24.68-10.484 1.328-.953 2.633-1.953 3.809-3.129 2.183-2.183 3.863-4.71 5.246-7.371 6.297 4.113 13.34 6.465 17.602 7.629zm-43.902-43.051c5.8 0 11.262 2.262 15.359 6.363 4.105 4.106 6.363 9.559 6.363 15.36s-2.262 11.261-6.363 15.358c-1.965 1.965-4.258 3.477-6.73 4.555-.442.09-.88.223-1.278.46-2.336.84-4.8 1.349-7.352 1.349-5.8 0-11.262-2.262-15.359-6.364-4.105-4.105-6.363-9.558-6.363-15.359s2.262-11.262 6.363-15.359c4.098-4.105 9.551-6.363 15.36-6.363zm-16.97-2.707c-1.437 1.004-2.827 2.102-4.093 3.367-1.812 1.813-3.258 3.871-4.523 6.02-3.961-4.711-10.316-13.344-13.832-23.56a35.507 35.507 0 0 0 13.059-3.109c2.11 6.918 6.527 13.504 9.39 17.281zm-4.491-69.555c10.824 10.824 10.824 28.449 0 39.273-1.121 1.121-2.36 2.078-3.618 2.973a4.04 4.04 0 0 0-1.269.855c-4.387 2.766-9.438 4.301-14.746 4.301-7.422 0-14.391-2.89-19.641-8.133-10.824-10.832-10.824-28.449 0-39.273 5.246-5.242 12.219-8.133 19.641-8.133 7.414.004 14.387 2.895 19.633 8.137zm-30.453-39.074c4.222 2.727 8.96 4.496 13.957 5.254-1.82 6.625-2.012 13.652-1.922 17.68-.41-.012-.805-.063-1.215-.063-4.227 0-8.328.766-12.191 2.16-.676-5.39-1.188-14.948 1.371-25.03zm39.004-10.492c-5.246 5.242-12.22 8.133-19.633 8.133-7.414 0-14.391-2.89-19.633-8.133-10.824-10.824-10.824-28.449 0-39.273 5.246-5.242 12.219-8.133 19.633-8.133s14.39 2.89 19.633 8.133c10.824 10.824 10.824 28.449 0 39.273zm.527-49.254c-4.39-3-9.367-4.945-14.637-5.758 2.348-4.648 7.324-13.316 15.367-21.89a40.104 40.104 0 0 0 4.844 5.874c1.64 1.64 3.414 3.086 5.273 4.395-5.023 5.53-8.715 12.633-10.848 17.379zm55.77-27.473c-5.941 5.941-13.844 9.219-22.25 9.219s-16.309-3.278-22.25-9.219c-5.941-5.945-9.21-13.844-9.21-22.25s3.269-16.309 9.21-22.25c5.941-5.941 13.844-9.219 22.25-9.219s16.309 3.277 22.25 9.219a31.507 31.507 0 0 1 5.191 6.875c.141.7.47 1.332.957 1.875a31.36 31.36 0 0 1 3.063 13.496c.008 8.41-3.27 16.312-9.211 22.254zm9.414-45.84c-1.137-1.52-2.348-2.992-3.71-4.352-2.364-2.363-5-4.351-7.802-6.02 4.13-4.35 13.445-13.561 22.902-18.89a39.343 39.343 0 0 0 7.145 9.781c.594.594 1.23 1.133 1.86 1.688-9.716 5.503-16.532 12.836-20.396 17.793zm68.734-25.184c-5.941 5.941-13.844 9.219-22.25 9.219s-16.309-3.278-22.25-9.219a31.44 31.44 0 0 1-6.855-10.246c-.051-.348-.079-.7-.23-1.035-.075-.164-.204-.262-.294-.41-1.187-3.348-1.844-6.895-1.844-10.551 0-8.407 3.27-16.31 9.211-22.25 5.946-5.942 13.844-9.211 22.25-9.211s16.31 3.27 22.25 9.21c5.942 5.942 9.219 13.845 9.219 22.25.012 8.399-3.266 16.302-9.207 22.243zm11.016-43.57a39.48 39.48 0 0 0-3.473-4.594c6.266-3.449 21.398-12.09 28.918-19.027 1.512-1.394 2.79-2.933 3.871-4.469 1.047 3.239 2.36 6.407 3.989 9.453-1.5-.164-2.684-.152-3.297-.105-7.59-.207-21.648 11.246-30.008 18.742z"/><use xlink:href="#m" x="70" y="644"/><use xlink:href="#d" x="90.550781" y="644"/><use xlink:href="#c" x="104.359375" y="644"/><use xlink:href="#b" x="123.347656" y="644"/><use xlink:href="#a" x="142.242188" y="644"/><use xlink:href="#c" x="155.628906" y="644"/><use xlink:href="#i" x="174.617188" y="644"/><use xlink:href="#n" x="204.410156" y="644"/><use xlink:href="#h" x="224.453125" y="644"/><use xlink:href="#m" x="252.453125" y="644"/><use xlink:href="#b" x="273" y="644"/><use xlink:href="#d" x="291.894531" y="644"/><use xlink:href="#i" x="305.703125" y="644"/><use xlink:href="#g" x="325.746094" y="644"/><use xlink:href="#w" x="352.160156" y="644"/><use xlink:href="#v" x="373.828125" y="644"/><use xlink:href="#b" x="393.875" y="644"/><use xlink:href="#l" x="412.765625" y="644"/><use xlink:href="#f" x="422.367188" y="644"/><use xlink:href="#g" x="442.296875" y="644"/><use xlink:href="#a" x="458.964844" y="644"/><use xlink:href="#u" x="482.097656" y="644"/><use xlink:href="#k" x="505.53125" y="644"/><use xlink:href="#j" x="525.464844" y="644"/><use xlink:href="#b" x="554.640625" y="644"/><use xlink:href="#f" x="573.535156" y="644"/><use xlink:href="#l" x="593.46875" y="644"/><use xlink:href="#a" x="603.066406" y="644"/><use xlink:href="#h" x="616.453125" y="644"/><use xlink:href="#t" x="70" y="672"/><use xlink:href="#d" x="82.183594" y="672"/><use xlink:href="#e" x="95.992188" y="672"/><use xlink:href="#j" x="115.226562" y="672"/><use xlink:href="#a" x="154.152344" y="672"/><use xlink:href="#s" x="167.535156" y="672"/><use xlink:href="#c" x="187.46875" y="672"/><use xlink:href="#r" x="216.207031" y="672"/><use xlink:href="#e" x="239.640625" y="672"/><use xlink:href="#k" x="258.878906" y="672"/><use xlink:href="#f" x="278.8125" y="672"/><use xlink:href="#q" x="308.492188" y="672"/><use xlink:href="#d" x="329.015625" y="672"/><use xlink:href="#e" x="342.820312" y="672"/><use xlink:href="#p" x="362.058594" y="672"/><use xlink:href="#c" x="371.65625" y="672"/><use xlink:href="#o" x="390.648438" y="672"/><use xlink:href="#a" x="407.242188" y="672"/></svg>
