<?xml version="1.0" standalone="no"?>
<!DOCTYPE svg PUBLIC "-//W3C//DTD SVG 20010904//EN"
 "http://www.w3.org/TR/2001/REC-SVG-20010904/DTD/svg10.dtd">
<svg version="1.0" xmlns="http://www.w3.org/2000/svg"
 width="512.000000pt" height="512.000000pt" viewBox="0 0 512.000000 512.000000"
 preserveAspectRatio="xMidYMid meet">

<g transform="translate(0.000000,512.000000) scale(0.100000,-0.100000)"
fill="#000000" stroke="none">
<path d="M2230 4890 c-744 -77 -1396 -461 -1802 -1060 -222 -327 -354 -676
-409 -1080 -17 -121 -17 -477 -1 -595 20 -145 52 -292 88 -412 31 -103 90
-262 100 -273 3 -2 621 612 1374 1365 l1370 1370 0 52 c0 176 93 333 242 407
38 20 92 38 119 42 27 4 49 10 49 14 0 11 -229 85 -351 114 -57 14 -156 32
-219 41 -135 19 -439 27 -560 15z"/>
<path d="M4486 3681 c-128 -217 -393 -591 -537 -756 -14 -16 -63 -73 -109
-125 -46 -52 -453 -466 -905 -920 -542 -543 -832 -842 -850 -874 -61 -105 -81
-254 -50 -366 61 -222 96 -378 111 -490 l18 -130 36 -7 c60 -12 449 -8 550 6
405 56 753 188 1079 409 514 348 889 905 1014 1507 41 197 51 299 51 515 0
114 -5 247 -13 300 -44 320 -145 631 -288 884 -72 127 -63 123 -107 47z"/>
</g>
</svg>
